<?xml version="1.0" encoding="UTF-8"?>
<svg xmlns="http://www.w3.org/2000/svg" xmlns:xlink="http://www.w3.org/1999/xlink" viewBox="0 0 50 50" width="50px" height="50px">
<g id="surface2268182">
<path style=" stroke:none;fill-rule:nonzero;fill:rgb(10.196079%,73.725492%,61.176473%);fill-opacity:1;" d="M 25 2 C 12.308594 2 2 12.308594 2 25 C 2 37.691406 12.308594 48 25 48 C 37.691406 48 48 37.691406 48 25 C 48 12.308594 37.691406 2 25 2 Z M 25 4 C 36.609375 4 46 13.390625 46 25 C 46 36.609375 36.609375 46 25 46 C 13.390625 46 4 36.609375 4 25 C 4 13.390625 13.390625 4 25 4 Z M 34.988281 14.988281 C 34.660156 14.996094 34.351562 15.164062 34.171875 15.441406 L 23.972656 30.476562 L 16.679688 23.710938 C 16.417969 23.460938 16.042969 23.371094 15.695312 23.472656 C 15.351562 23.578125 15.085938 23.863281 15.007812 24.214844 C 14.929688 24.570312 15.050781 24.9375 15.320312 25.175781 L 24.316406 33.523438 L 35.828125 16.558594 C 36.042969 16.253906 36.066406 15.847656 35.890625 15.515625 C 35.710938 15.183594 35.363281 14.980469 34.988281 14.988281 Z M 34.988281 14.988281 "/>
</g>
</svg>
