<?xml version="1.0" encoding="UTF-8"?>
<!DOCTYPE svg PUBLIC "-//W3C//DTD SVG 1.1//EN" "http://www.w3.org/Graphics/SVG/1.1/DTD/svg11.dtd">
<svg xmlns="http://www.w3.org/2000/svg" version="1.1" width="50px" height="50px" style="shape-rendering:geometricPrecision; text-rendering:geometricPrecision; image-rendering:optimizeQuality; fill-rule:evenodd; clip-rule:evenodd" xmlns:xlink="http://www.w3.org/1999/xlink">
<g><path style="opacity:0.978" fill="#fefffe" d="M 2.5,7.5 C 17.1667,7.5 31.8333,7.5 46.5,7.5C 46.5,8.83333 46.5,10.1667 46.5,11.5C 31.8333,11.5 17.1667,11.5 2.5,11.5C 2.5,10.1667 2.5,8.83333 2.5,7.5 Z"/></g>
<g><path style="opacity:0.978" fill="#fefffe" d="M 2.5,22.5 C 17.1667,22.5 31.8333,22.5 46.5,22.5C 46.5,23.8333 46.5,25.1667 46.5,26.5C 31.8333,26.5 17.1667,26.5 2.5,26.5C 2.5,25.1667 2.5,23.8333 2.5,22.5 Z"/></g>
<g><path style="opacity:0.978" fill="#fefffe" d="M 2.5,37.5 C 17.1667,37.5 31.8333,37.5 46.5,37.5C 46.5,38.8333 46.5,40.1667 46.5,41.5C 31.8333,41.5 17.1667,41.5 2.5,41.5C 2.5,40.1667 2.5,38.8333 2.5,37.5 Z"/></g>
</svg>
